<svg width="11" height="11" viewBox="0 0 11 11" fill="none" xmlns="http://www.w3.org/2000/svg">
<path d="M5.27435 3.35901C3.89789 3.35901 2.78076 4.47614 2.78076 5.8526C2.78076 7.22906 3.89789 8.34619 5.27435 8.34619C6.65081 8.34619 7.76794 7.22906 7.76794 5.8526C7.76794 4.47614 6.65081 3.35901 5.27435 3.35901ZM5.27435 0.865417C2.52143 0.865417 0.28717 3.09967 0.28717 5.8526C0.28717 8.60552 2.52143 10.8398 5.27435 10.8398C8.02727 10.8398 10.2615 8.60552 10.2615 5.8526C10.2615 3.09967 8.02727 0.865417 5.27435 0.865417ZM5.27435 9.84234C3.07002 9.84234 1.28461 8.05693 1.28461 5.8526C1.28461 3.64826 3.07002 1.86285 5.27435 1.86285C7.47868 1.86285 9.26409 3.64826 9.26409 5.8526C9.26409 8.05693 7.47868 9.84234 5.27435 9.84234Z" fill="#418EB8"/>
</svg>
