<svg width="11" height="12" viewBox="0 0 11 12" fill="none" xmlns="http://www.w3.org/2000/svg">
<path d="M5.76163 8.78752C4.32781 8.78752 3.16414 7.62385 3.16414 6.19003C3.16414 4.75622 4.32781 3.59254 5.76163 3.59254C7.19544 3.59254 8.35912 4.75622 8.35912 6.19003C8.35912 7.62385 7.19544 8.78752 5.76163 8.78752ZM5.76163 11.385C2.894 11.385 0.56665 9.05766 0.56665 6.19003C0.56665 3.3224 2.894 0.995053 5.76163 0.995053C8.62926 0.995053 10.9566 3.3224 10.9566 6.19003C10.9566 9.05766 8.62926 11.385 5.76163 11.385ZM5.76163 2.03405C3.46545 2.03405 1.60565 3.89385 1.60565 6.19003C1.60565 8.48621 3.46545 10.346 5.76163 10.346C8.05781 10.346 9.91761 8.48621 9.91761 6.19003C9.91761 3.89385 8.05781 2.03405 5.76163 2.03405Z" fill="black"/>
</svg>
