<svg width="11" height="11" viewBox="0 0 11 11" fill="none" xmlns="http://www.w3.org/2000/svg">
<path d="M5.68472 8.0695C4.25091 8.0695 3.08724 6.90583 3.08724 5.47201C3.08724 4.0382 4.25091 2.87453 5.68472 2.87453C7.11854 2.87453 8.28221 4.0382 8.28221 5.47201C8.28221 6.90583 7.11854 8.0695 5.68472 8.0695ZM5.68472 10.667C2.8171 10.667 0.489746 8.33964 0.489746 5.47201C0.489746 2.60439 2.8171 0.277036 5.68472 0.277036C8.55235 0.277036 10.8797 2.60439 10.8797 5.47201C10.8797 8.33964 8.55235 10.667 5.68472 10.667ZM5.68472 1.31603C3.38854 1.31603 1.52874 3.17583 1.52874 5.47201C1.52874 7.76819 3.38854 9.628 5.68472 9.628C7.9809 9.628 9.84071 7.76819 9.84071 5.47201C9.84071 3.17583 7.9809 1.31603 5.68472 1.31603Z" fill="black"/>
</svg>
