<svg width="11" height="12" viewBox="0 0 11 12" fill="none" xmlns="http://www.w3.org/2000/svg">
<path d="M5.73599 8.77434C4.30218 8.77434 3.1385 7.61066 3.1385 6.17685C3.1385 4.74303 4.30218 3.57936 5.73599 3.57936C7.16981 3.57936 8.33348 4.74303 8.33348 6.17685C8.33348 7.61066 7.16981 8.77434 5.73599 8.77434ZM5.73599 11.3718C2.86837 11.3718 0.541016 9.04448 0.541016 6.17685C0.541016 3.30922 2.86837 0.98187 5.73599 0.98187C8.60362 0.98187 10.931 3.30922 10.931 6.17685C10.931 9.04448 8.60362 11.3718 5.73599 11.3718ZM5.73599 2.02087C3.43981 2.02087 1.58001 3.88067 1.58001 6.17685C1.58001 8.47303 3.43981 10.3328 5.73599 10.3328C8.03217 10.3328 9.89198 8.47303 9.89198 6.17685C9.89198 3.88067 8.03217 2.02087 5.73599 2.02087Z" fill="black"/>
</svg>
