<svg width="11" height="12" viewBox="0 0 11 12" fill="none" xmlns="http://www.w3.org/2000/svg">
<path d="M5.73605 8.63347C4.30224 8.63347 3.13857 7.46979 3.13857 6.03598C3.13857 4.60216 4.30224 3.43849 5.73605 3.43849C7.16987 3.43849 8.33354 4.60216 8.33354 6.03598C8.33354 7.46979 7.16987 8.63347 5.73605 8.63347ZM5.73605 11.231C2.86843 11.231 0.541077 8.90361 0.541077 6.03598C0.541077 3.16835 2.86843 0.841001 5.73605 0.841001C8.60368 0.841001 10.931 3.16835 10.931 6.03598C10.931 8.90361 8.60368 11.231 5.73605 11.231ZM5.73605 1.88C3.43987 1.88 1.58007 3.7398 1.58007 6.03598C1.58007 8.33216 3.43987 10.192 5.73605 10.192C8.03224 10.192 9.89204 8.33216 9.89204 6.03598C9.89204 3.7398 8.03224 1.88 5.73605 1.88Z" fill="black"/>
</svg>
