<svg width="6" height="6" viewBox="0 0 6 6" fill="none" xmlns="http://www.w3.org/2000/svg">
<path d="M2.04003 1.80003V0.840027M3.96003 1.80003V0.840027M1.80003 2.76003H4.20003M1.32003 5.16003H4.68003C4.80733 5.16003 4.92942 5.10946 5.01944 5.01944C5.10946 4.92942 5.16003 4.80733 5.16003 4.68003V1.80003C5.16003 1.67272 5.10946 1.55063 5.01944 1.46062C4.92942 1.3706 4.80733 1.32003 4.68003 1.32003H1.32003C1.19272 1.32003 1.07063 1.3706 0.980616 1.46062C0.890598 1.55063 0.840027 1.67272 0.840027 1.80003V4.68003C0.840027 4.80733 0.890598 4.92942 0.980616 5.01944C1.07063 5.10946 1.19272 5.16003 1.32003 5.16003Z" stroke="#59587E" stroke-width="0.48" stroke-linecap="round" stroke-linejoin="round"/>
</svg>
